<svg width="466" height="494" viewBox="0 0 466 494" fill="none" xmlns="http://www.w3.org/2000/svg">
<mask id="mask0_10_21" style="mask-type:luminance" maskUnits="userSpaceOnUse" x="0" y="54" width="466" height="440">
<path d="M0.21875 54.6667H465.333V493.333H0.21875V54.6667Z" fill="white"/>
</mask>
<g mask="url(#mask0_10_21)">
<mask id="mask1_10_21" style="mask-type:luminance" maskUnits="userSpaceOnUse" x="0" y="55" width="465" height="438">
<path d="M461.625 63.5625C458.833 62.3698 456.042 61.5729 453.25 61.5729C444.875 61.1719 437.932 61.1719 430.74 60.375C414.307 58.7812 398.219 56.7865 381.786 55.9896C368.432 55.1927 355.427 55.9896 342.073 55.5885C336.255 55.5885 330.432 54.7917 324.615 55.5885C310.578 57.9792 296.542 58.3802 282.161 57.5833C274.974 57.1823 267.786 57.1823 260.594 57.1823C247.589 57.1823 234.578 57.1823 221.568 56.7865C207.875 56.3854 72.9896 55.5885 59.6406 55.1927C48.6823 54.7917 38.0729 55.1927 27.1146 55.1927C19.5833 55.1927 10.5833 55.9896 1.8125 56.3854C1.41146 56.3854 1.01563 57.1823 0.21875 57.5833C0.614585 61.5729 1.41146 65.5573 1.8125 69.5469C5 88.625 5.40104 106.849 5.79688 124.75C6.19792 142.974 5.79688 161.198 5.40104 179.74C5 198.604 1.01562 396.495 1.01562 415.359C1.01562 433.901 0.614585 452.443 0.21875 470.984C0.21875 475.682 1.41146 478.875 5 480.469C7.39583 481.667 10.1875 482.464 12.9792 482.859C26.776 484.458 39.7813 485.651 52.7917 487.245C59.9792 488.047 67.1719 489.641 74.3594 490.036C86.3438 490.833 219.854 491.234 231.839 491.635C233.552 491.635 235.26 491.635 236.974 491.635C245.193 491.635 253.75 491.234 261.964 491.234C271.552 491.234 280.792 491.635 290.38 491.635C304.417 491.635 318.797 491.635 332.828 491.635C345.839 491.635 358.849 492.031 371.859 492.432C377.677 492.432 383.839 492.828 389.661 492.828C408.49 492.432 426.974 490.438 446.073 490.438C447.271 490.438 448.865 489.641 450.062 488.844C451.656 487.646 452.453 485.651 453.25 484.854C453.651 468.75 454.047 455.323 454.448 441.896C454.844 421.115 458.036 221.62 458.432 200.839C458.432 188.37 458.833 175.901 459.229 163.438C459.63 150.005 460.031 136.578 460.828 123.151C461.224 115.161 461.224 106.849 462.818 98.8542C464.417 89.2656 465.214 79.9948 464.812 68.75C464.812 66.7552 463.62 64.3594 461.625 63.5625Z" fill="white"/>
</mask>
<g mask="url(#mask1_10_21)">
<path d="M0.21875 55.1927H464.344V493.625H0.21875V55.1927Z" fill="#425957"/>
</g>
</g>
<mask id="mask2_10_21" style="mask-type:luminance" maskUnits="userSpaceOnUse" x="0" y="25" width="466" height="196">
<path d="M0.21875 25.3333H465.036V220.719H0.21875V25.3333Z" fill="white"/>
</mask>
<g mask="url(#mask2_10_21)">
<mask id="mask3_10_21" style="mask-type:luminance" maskUnits="userSpaceOnUse" x="0" y="25" width="465" height="196">
<path d="M461.625 34.4636C458.833 33.2709 456.042 32.474 453.25 32.474C444.875 32.0729 437.932 32.0729 430.74 31.2761C414.307 29.6823 398.219 27.6875 381.786 26.8906C368.432 26.0938 355.427 26.8906 342.073 26.4896C336.255 26.4896 330.432 25.6927 324.615 26.4896C310.578 28.8854 296.542 29.2813 282.161 28.4844C274.974 28.0886 267.786 28.0886 260.594 28.0886C247.589 28.0886 234.578 28.0886 221.568 27.6875C207.875 27.2865 72.9896 26.4896 59.6406 26.0938C48.6823 25.6927 38.0729 26.0938 27.1146 26.0938C19.5833 26.0938 10.5833 26.8906 1.8125 27.2865C1.41146 27.2865 1.01563 28.0886 0.21875 28.4844C0.614585 32.474 1.41146 36.4584 1.8125 40.4479C5 51.4896 5.40104 58.5677 5.79688 65.5261C6.19792 72.6042 5.79688 79.6875 5.40104 86.8906C5 94.2188 1.01562 171.104 1.01562 178.432C1.01562 185.635 0.614585 192.844 0.21875 200.047C0.21875 203.542 1.41146 206.729 5 208.323C7.39583 209.521 10.1875 210.318 12.9792 210.719C26.776 212.313 39.7813 213.51 52.7917 215.104C59.9792 215.901 67.1719 217.495 74.3594 217.896C86.3438 218.693 219.854 219.094 231.839 219.49C233.552 219.49 235.26 219.49 236.974 219.49C245.193 219.49 253.75 219.094 261.964 219.094C271.552 219.094 280.792 219.49 290.38 219.49C304.417 219.49 318.797 219.49 332.828 219.49C345.839 219.49 358.849 219.891 371.859 220.286C377.677 220.286 383.839 220.688 389.661 220.688C408.49 220.286 426.974 218.292 446.073 218.292C447.271 218.292 448.865 217.495 450.062 216.698C451.656 215.505 452.453 213.51 453.25 212.714C453.651 199.177 454.047 193.958 454.448 188.745C454.844 180.672 458.036 103.161 458.432 95.0886C458.432 90.2448 458.833 85.4011 459.229 80.5573C459.63 75.3386 460.031 70.1198 460.828 64.9063C461.224 61.8021 461.224 58.5677 462.818 55.4636C464.417 51.7396 465.214 48.1354 464.812 39.6511C464.812 37.6563 463.62 35.2656 461.625 34.4636Z" fill="white"/>
</mask>
<g mask="url(#mask3_10_21)">
<path d="M0.21875 26.0938H465.036V221.484H0.21875V26.0938Z" fill="#EDCC9A"/>
</g>
</g>
<mask id="mask4_10_21" style="mask-type:luminance" maskUnits="userSpaceOnUse" x="139" y="0" width="173" height="51">
<path d="M139.068 0.791656H312V50.7917H139.068V0.791656Z" fill="white"/>
</mask>
<g mask="url(#mask4_10_21)">
<path d="M309.516 45.2344L311.677 51.0156H139.167L140.823 38.4062L142.474 32.7604L145.844 25.9062L144.547 18.1719L142.474 10.1719V5.69792L139.167 0.796875H311.677V0.901042C309.573 3.44792 306.161 7.85938 305.115 10.875C303.562 15.349 305.63 16.0521 306.411 20.2865C307.187 24.526 307.703 26.8802 307.703 26.8802L310.036 35.5833L308.224 40.2917L309.516 45.2344Z" fill="#B0A768"/>
<path d="M265.583 12.3958L252.995 32.5833L275.214 44.0208L287.802 23.8333L265.583 12.3958ZM202.266 19.8021L180.047 8.36458L167.464 28.5521L189.677 39.9896L202.266 19.8021ZM272.812 0.796875L271.875 2.30208L294.094 13.7396L302.161 0.796875H311.677V0.901042C309.573 3.44792 306.161 7.85938 305.115 10.875C303.839 14.5573 305.01 15.6875 305.901 18.3333L305.203 19.4583L306.365 20.0573C306.38 20.1302 306.396 20.2083 306.411 20.2865C307.187 24.526 307.703 26.8802 307.703 26.8802L309.943 35.2292L298.911 29.5521L286.323 49.7396L288.802 51.0156H262.901L246.703 42.6771L241.5 51.0156H226.828L235.594 36.9583L213.375 25.5208L200.786 45.7083L211.099 51.0156H182.802L183.385 50.0833L161.167 38.6458L153.453 51.0156H139.167L139.271 50.2292L150.057 32.9271L143.937 29.776L145.844 25.9062L144.547 18.1719L144.125 16.5365L156.354 22.8333L168.943 2.64583L165.344 0.796875H191.245L208.562 9.70833L214.115 0.796875H228.792L219.667 15.4271L241.885 26.8646L254.474 6.67708L243.052 0.796875H272.812ZM140.745 0.796875L139.99 2.01042L139.167 0.796875H140.745Z" fill="#B0A768"/>
<path d="M140.328 42.1823L157.49 51.0156H161.109L140.552 40.4375L140.328 42.1823ZM306.641 7.79688C306.922 7.33333 307.224 6.86458 307.536 6.39583L296.661 0.796875H293.042L306.641 7.79688ZM144.255 17.0521L144.547 18.1719L144.771 19.5156L151.875 8.125L183.646 24.4844L167.104 51.0156H169.156L185.198 25.2812L216.974 41.6406L211.125 51.0156H213.177L218.526 42.4375L235.187 51.0156H238.812L219.406 41.026L237.406 12.1562L269.182 28.5156L255.151 51.0156H257.198L270.734 29.3125L302.505 45.6719L299.172 51.0156H301.224L304.062 46.4688L311.385 50.2396L310.526 47.9375L304.937 45.0573L308.724 38.9844L310.036 35.5833L309.661 34.1927L303.385 44.2604L271.615 27.901L288.516 0.796875H286.464L270.062 27.1042L238.286 10.7448L244.49 0.796875H242.443L236.734 9.94792L218.958 0.796875H215.339L235.854 11.3594L217.854 40.2292L186.078 23.8698L200.469 0.796875H198.417L184.526 23.0729L152.755 6.71354L156.443 0.796875H154.396L151.203 5.91667L141.255 0.796875H139.167L139.984 2.00521L150.323 7.32812L144.255 17.0521ZM161.167 38.6458L167.464 28.5521L156.354 22.8333L150.057 32.9271L161.167 38.6458ZM168.943 2.64583L180.047 8.36458L184.766 0.796875H170.094L168.943 2.64583ZM254.474 6.67708L265.583 12.3958L271.875 2.30208L268.948 0.796875H258.141L254.474 6.67708ZM241.885 26.8646L235.594 36.9583L246.703 42.6771L252.995 32.5833L241.885 26.8646ZM202.266 19.8021L213.375 25.5208L219.667 15.4271L208.562 9.70833L202.266 19.8021ZM200.786 45.7083L189.677 39.9896L183.385 50.0833L185.198 51.0156H197.479L200.786 45.7083ZM294.094 13.7396L287.802 23.8333L298.911 29.5521L305.203 19.4583L294.094 13.7396ZM275.214 44.0208L286.323 49.7396L285.526 51.0156H270.849L275.214 44.0208Z" fill="#B0A768"/>
</g>
</svg>
