<svg width="466" height="440" viewBox="0 0 466 440" fill="none" xmlns="http://www.w3.org/2000/svg">
<mask id="mask0_2_546" style="mask-type:luminance" maskUnits="userSpaceOnUse" x="0" y="0" width="466" height="440">
<path d="M0.21875 0.666687H465.333V439.333H0.21875V0.666687Z" fill="white"/>
</mask>
<g mask="url(#mask0_2_546)">
<mask id="mask1_2_546" style="mask-type:luminance" maskUnits="userSpaceOnUse" x="0" y="1" width="465" height="438">
<path d="M461.625 9.5625C458.833 8.36979 456.042 7.57291 453.25 7.57291C444.875 7.17187 437.932 7.17187 430.74 6.375C414.307 4.78125 398.219 2.78646 381.786 1.98958C368.432 1.1927 355.427 1.98958 342.073 1.58854C336.255 1.58854 330.432 0.791665 324.615 1.58854C310.578 3.97916 296.542 4.38021 282.161 3.58333C274.974 3.18229 267.786 3.18229 260.594 3.18229C247.589 3.18229 234.578 3.18229 221.568 2.78646C207.875 2.38541 72.9896 1.58854 59.6406 1.19271C48.6823 0.791665 38.0729 1.19271 27.1146 1.19271C19.5833 1.19271 10.5833 1.98958 1.8125 2.38541C1.41146 2.38541 1.01563 3.18229 0.21875 3.58333C0.614585 7.57292 1.41146 11.5573 1.8125 15.5469C5 34.625 5.40104 52.849 5.79688 70.75C6.19792 88.974 5.79688 107.198 5.40104 125.74C5 144.604 1.01562 342.495 1.01562 361.359C1.01562 379.901 0.614585 398.443 0.21875 416.984C0.21875 421.682 1.41146 424.875 5 426.469C7.39583 427.667 10.1875 428.464 12.9792 428.859C26.776 430.458 39.7813 431.651 52.7917 433.245C59.9792 434.047 67.1719 435.641 74.3594 436.036C86.3438 436.833 219.854 437.234 231.839 437.635C233.552 437.635 235.26 437.635 236.974 437.635C245.193 437.635 253.75 437.234 261.964 437.234C271.552 437.234 280.792 437.635 290.38 437.635C304.417 437.635 318.797 437.635 332.828 437.635C345.839 437.635 358.849 438.031 371.859 438.432C377.677 438.432 383.839 438.828 389.661 438.828C408.49 438.432 426.974 436.438 446.073 436.438C447.271 436.438 448.865 435.641 450.062 434.844C451.656 433.646 452.453 431.651 453.25 430.854C453.651 414.75 454.047 401.323 454.448 387.896C454.844 367.115 458.036 167.62 458.432 146.839C458.432 134.37 458.833 121.901 459.229 109.438C459.63 96.0052 460.031 82.5781 460.828 69.151C461.224 61.1615 461.224 52.849 462.818 44.8542C464.417 35.2656 465.214 25.9948 464.812 14.75C464.812 12.7552 463.62 10.3594 461.625 9.5625Z" fill="white"/>
</mask>
<g mask="url(#mask1_2_546)">
<path d="M0.21875 1.19269H464.344V439.625H0.21875V1.19269Z" fill="#425957"/>
</g>
</g>
</svg>
